<?xml version="1.0" encoding="UTF-8" standalone="no"?>
<!-- Created with Inkscape (http://www.inkscape.org/) -->

<svg
   width="210mm"
   height="297mm"
   viewBox="0 0 210 297"
   version="1.1"
   id="svg5"
   inkscape:version="1.1.2 (0a00cf5339, 2022-02-04)"
   sodipodi:docname="logo.svg"
   xmlns:inkscape="http://www.inkscape.org/namespaces/inkscape"
   xmlns:sodipodi="http://sodipodi.sourceforge.net/DTD/sodipodi-0.dtd"
   xmlns="http://www.w3.org/2000/svg"
   xmlns:svg="http://www.w3.org/2000/svg">
  <sodipodi:namedview
     id="namedview7"
     pagecolor="#ffffff"
     bordercolor="#666666"
     borderopacity="1.0"
     inkscape:pageshadow="2"
     inkscape:pageopacity="0.0"
     inkscape:pagecheckerboard="0"
     inkscape:document-units="mm"
     showgrid="false"
     inkscape:zoom="1.0519801"
     inkscape:cx="167.30355"
     inkscape:cy="279.94827"
     inkscape:window-width="1920"
     inkscape:window-height="1017"
     inkscape:window-x="0"
     inkscape:window-y="0"
     inkscape:window-maximized="1"
     inkscape:current-layer="layer1" />
  <defs
     id="defs2" />
  <g
     inkscape:label="Layer 1"
     inkscape:groupmode="layer"
     id="layer1">
    <path
       id="rect846"
       style="color:#000000;overflow:visible;fill:#ffffff;fill-opacity:1;stroke:#000000;stroke-width:2;stroke-miterlimit:4;stroke-dasharray:none;stroke-opacity:1;stop-color:#000000"
       d="M 58.431575,56.851827 30.604851,75.557144 49.377348,103.48412 58.431575,97.397672 V 149.32112 H 137.85153 V 97.397672 l 9.05423,6.086448 18.7725,-27.926976 -27.82673,-18.705317 H 116.17585 A 21.07455,21.07455 0 0 1 99.290062,65.438382 21.07455,21.07455 0 0 1 82.403756,56.851827 Z"
       inkscape:export-filename="/home/dom/perso/brangoulo/bretelles/logo.png"
       inkscape:export-xdpi="36.851913"
       inkscape:export-ydpi="36.851913" />
    <g
       id="g1515"
       transform="translate(-0.02816126)"
       inkscape:export-filename="/home/dom/perso/brangoulo/bretelles/logo.png"
       inkscape:export-xdpi="36.851913"
       inkscape:export-ydpi="36.851913">
      <circle
         style="color:#000000;overflow:visible;fill:none;fill-opacity:1;stroke:#000000;stroke-width:2;stroke-miterlimit:4;stroke-dasharray:none;stroke-opacity:1;stop-color:#000000"
         id="path1423"
         cx="98.169716"
         cy="80.075447"
         r="3.1800091" />
      <circle
         style="color:#000000;overflow:visible;fill:none;fill-opacity:1;stroke:#000000;stroke-width:2;stroke-miterlimit:4;stroke-dasharray:none;stroke-opacity:1;stop-color:#000000"
         id="circle1505"
         cx="98.169716"
         cy="95.950439"
         r="3.1800091" />
      <circle
         style="color:#000000;overflow:visible;fill:none;fill-opacity:1;stroke:#000000;stroke-width:2;stroke-miterlimit:4;stroke-dasharray:none;stroke-opacity:1;stop-color:#000000"
         id="circle1507"
         cx="98.169716"
         cy="111.82543"
         r="3.1800091" />
      <circle
         style="color:#000000;overflow:visible;fill:none;fill-opacity:1;stroke:#000000;stroke-width:2;stroke-miterlimit:4;stroke-dasharray:none;stroke-opacity:1;stop-color:#000000"
         id="circle1509"
         cx="98.169716"
         cy="127.70043"
         r="3.1800091" />
    </g>
    <g
       id="g1584"
       transform="translate(-0.28285191)"
       inkscape:export-filename="/home/dom/perso/brangoulo/bretelles/logo.png"
       inkscape:export-xdpi="36.851913"
       inkscape:export-ydpi="36.851913">
      <rect
         style="color:#000000;overflow:visible;fill:none;fill-opacity:1;stroke:#000000;stroke-width:2.02052;stroke-miterlimit:4;stroke-dasharray:none;stroke-opacity:1;stop-color:#000000"
         id="rect1103"
         width="13.639173"
         height="92.327705"
         x="63.632462"
         y="56.931103" />
      <rect
         style="color:#000000;overflow:visible;fill:none;fill-opacity:1;stroke:#000000;stroke-width:2.02052;stroke-miterlimit:4;stroke-dasharray:none;stroke-opacity:1;stop-color:#000000"
         id="rect1580"
         width="13.639173"
         height="92.327705"
         x="119.57718"
         y="56.931103" />
    </g>
    <rect
       style="color:#000000;overflow:visible;fill:none;fill-opacity:1;stroke:#000000;stroke-width:2.12267;stroke-miterlimit:4;stroke-dasharray:none;stroke-opacity:1;stop-color:#000000"
       id="rect1616"
       width="12.658182"
       height="1.3352085"
       x="15.993141"
       y="103.27718"
       transform="matrix(0.89879008,-0.43837927,0.48219827,0.87606212,0,0)"
       inkscape:export-filename="/home/dom/perso/brangoulo/bretelles/logo.png"
       inkscape:export-xdpi="36.851913"
       inkscape:export-ydpi="36.851913" />
    <rect
       style="color:#000000;overflow:visible;fill:none;fill-opacity:1;stroke:#000000;stroke-width:2.12267;stroke-miterlimit:4;stroke-dasharray:none;stroke-opacity:1;stop-color:#000000"
       id="rect1698"
       width="12.658182"
       height="1.3352085"
       x="21.102631"
       y="93.75338"
       transform="matrix(0.89879008,-0.43837927,0.48219827,0.87606212,0,0)"
       inkscape:export-filename="/home/dom/perso/brangoulo/bretelles/logo.png"
       inkscape:export-xdpi="36.851913"
       inkscape:export-ydpi="36.851913" />
    <path
       id="rect1700"
       style="color:#000000;fill:#000000;-inkscape-stroke:none"
       d="M 283.11523 211.2168 L 237.00586 233.70703 L 243.31055 245.1582 L 293.52539 220.66602 L 288.32227 211.2168 L 283.11523 211.2168 z "
       transform="scale(0.26458333)"
       inkscape:export-filename="/home/dom/perso/brangoulo/bretelles/logo.png"
       inkscape:export-xdpi="36.851913"
       inkscape:export-ydpi="36.851913" />
    <rect
       style="color:#000000;overflow:visible;fill:none;fill-opacity:1;stroke:#000000;stroke-width:2.12267;stroke-miterlimit:4;stroke-dasharray:none;stroke-opacity:1;stop-color:#000000"
       id="rect1704"
       width="12.658182"
       height="1.3352085"
       x="10.883652"
       y="112.80099"
       transform="matrix(0.89879008,-0.43837927,0.48219827,0.87606212,0,0)"
       inkscape:export-filename="/home/dom/perso/brangoulo/bretelles/logo.png"
       inkscape:export-xdpi="36.851913"
       inkscape:export-ydpi="36.851913" />
    <rect
       style="color:#000000;overflow:visible;fill:none;fill-opacity:1;stroke:#000000;stroke-width:2.12267;stroke-miterlimit:4;stroke-dasharray:none;stroke-opacity:1;stop-color:#000000"
       id="rect1706"
       width="12.658182"
       height="1.3352085"
       x="5.7741618"
       y="122.32479"
       transform="matrix(0.89879008,-0.43837927,0.48219827,0.87606212,0,0)"
       inkscape:export-filename="/home/dom/perso/brangoulo/bretelles/logo.png"
       inkscape:export-xdpi="36.851913"
       inkscape:export-ydpi="36.851913" />
    <rect
       style="color:#000000;overflow:visible;fill:none;fill-opacity:1;stroke:#000000;stroke-width:2.12267;stroke-miterlimit:4;stroke-dasharray:none;stroke-opacity:1;stop-color:#000000"
       id="rect1708"
       width="12.658182"
       height="1.3352085"
       x="0.66467184"
       y="131.84859"
       transform="matrix(0.89879008,-0.43837927,0.48219827,0.87606212,0,0)"
       inkscape:export-filename="/home/dom/perso/brangoulo/bretelles/logo.png"
       inkscape:export-xdpi="36.851913"
       inkscape:export-ydpi="36.851913" />
    <rect
       style="color:#000000;overflow:visible;fill:none;fill-opacity:1;stroke:#000000;stroke-width:2.12267;stroke-miterlimit:4;stroke-dasharray:none;stroke-opacity:1;stop-color:#000000"
       id="rect1710"
       width="12.658182"
       height="1.3352085"
       x="-4.444818"
       y="141.37239"
       transform="matrix(0.89879008,-0.43837927,0.48219827,0.87606212,0,0)"
       inkscape:export-filename="/home/dom/perso/brangoulo/bretelles/logo.png"
       inkscape:export-xdpi="36.851913"
       inkscape:export-ydpi="36.851913" />
    <rect
       style="color:#000000;overflow:visible;fill:none;fill-opacity:1;stroke:#000000;stroke-width:2.12267;stroke-miterlimit:4;stroke-dasharray:none;stroke-opacity:1;stop-color:#000000"
       id="rect1712"
       width="12.658182"
       height="1.3352085"
       x="-9.5543079"
       y="150.89619"
       transform="matrix(0.89879008,-0.43837927,0.48219827,0.87606212,0,0)"
       inkscape:export-filename="/home/dom/perso/brangoulo/bretelles/logo.png"
       inkscape:export-xdpi="36.851913"
       inkscape:export-ydpi="36.851913" />
    <rect
       style="color:#000000;overflow:visible;fill:none;fill-opacity:1;stroke:#000000;stroke-width:2.12267;stroke-miterlimit:4;stroke-dasharray:none;stroke-opacity:1;stop-color:#000000"
       id="rect1714"
       width="12.658182"
       height="1.3352085"
       x="-9.5543079"
       y="150.89619"
       transform="matrix(0.89879008,-0.43837927,0.48219827,0.87606212,0,0)"
       inkscape:export-filename="/home/dom/perso/brangoulo/bretelles/logo.png"
       inkscape:export-xdpi="36.851913"
       inkscape:export-ydpi="36.851913" />
    <rect
       style="color:#000000;overflow:visible;fill:none;fill-opacity:1;stroke:#000000;stroke-width:2.12267;stroke-miterlimit:4;stroke-dasharray:none;stroke-opacity:1;stop-color:#000000"
       id="rect1716"
       width="12.658182"
       height="1.3352085"
       x="-14.663797"
       y="160.42"
       transform="matrix(0.89879008,-0.43837927,0.48219827,0.87606212,0,0)"
       inkscape:export-filename="/home/dom/perso/brangoulo/bretelles/logo.png"
       inkscape:export-xdpi="36.851913"
       inkscape:export-ydpi="36.851913" />
    <path
       id="path2620"
       style="overflow:visible;fill:none;stroke:#000000;stroke-width:2;stop-color:#000000"
       d="m 121.73608,61.634398 a 7.9616127,7.9616127 0 0 0 -1.87275,0.22996 v 15.46417 a 7.9616127,7.9616127 0 0 0 1.87275,0.229444 7.9616127,7.9616127 0 0 0 7.96127,-7.961788 7.9616127,7.9616127 0 0 0 -7.96127,-7.961786 z"
       inkscape:export-filename="/home/dom/perso/brangoulo/bretelles/logo.png"
       inkscape:export-xdpi="36.851913"
       inkscape:export-ydpi="36.851913" />
    <path
       id="path2750"
       style="overflow:visible;fill:none;stroke:#000000;stroke-width:2;stop-color:#000000"
       d="m 130.47045,82.801066 a 7.9616127,7.9616127 0 0 1 1.87275,0.22996 v 15.46417 a 7.9616127,7.9616127 0 0 1 -1.87275,0.229444 7.9616127,7.9616127 0 0 1 -7.96127,-7.961788 7.9616127,7.9616127 0 0 1 7.96127,-7.961786 z"
       inkscape:export-filename="/home/dom/perso/brangoulo/bretelles/logo.png"
       inkscape:export-xdpi="36.851913"
       inkscape:export-ydpi="36.851913" />
    <path
       id="path2752"
       style="overflow:visible;fill:none;stroke:#000000;stroke-width:2;stop-color:#000000"
       d="m 121.73608,103.96773 a 7.9616127,7.9616127 0 0 0 -1.87275,0.22996 v 15.46418 a 7.9616127,7.9616127 0 0 0 1.87275,0.22945 7.9616127,7.9616127 0 0 0 7.96127,-7.96179 7.9616127,7.9616127 0 0 0 -7.96127,-7.9618 z"
       inkscape:export-filename="/home/dom/perso/brangoulo/bretelles/logo.png"
       inkscape:export-xdpi="36.851913"
       inkscape:export-ydpi="36.851913" />
    <path
       id="path2754"
       style="overflow:visible;fill:none;stroke:#000000;stroke-width:2;stop-color:#000000"
       d="m 130.47045,125.13441 a 7.9616127,7.9616127 0 0 1 1.87275,0.22996 v 15.46418 a 7.9616127,7.9616127 0 0 1 -1.87275,0.22945 7.9616127,7.9616127 0 0 1 -7.96127,-7.96179 7.9616127,7.9616127 0 0 1 7.96127,-7.9618 z"
       inkscape:export-filename="/home/dom/perso/brangoulo/bretelles/logo.png"
       inkscape:export-xdpi="36.851913"
       inkscape:export-ydpi="36.851913" />
    <path
       style="color:#000000;overflow:visible;fill:#ff0000;fill-opacity:1;stroke:#000000;stroke-width:7.18555;stroke-miterlimit:4;stroke-dasharray:none;stroke-opacity:1;stop-color:#000000"
       d="m 457.19773,236.9063 c 0.0237,17.20589 -0.0469,34.45087 0.0353,51.63254 14.98214,2.06611 29.98003,-11.37205 28.38765,-26.67587 0.26048,-14.81396 -14.51536,-25.49387 -28.42292,-24.95667 z"
       id="path2858"
       transform="scale(0.26458333)"
       inkscape:export-filename="/home/dom/perso/brangoulo/bretelles/logo.png"
       inkscape:export-xdpi="36.851913"
       inkscape:export-ydpi="36.851913" />
    <path
       style="color:#000000;overflow:visible;fill:#ff0000;fill-opacity:1;stroke:#000000;stroke-width:7.18555;stroke-miterlimit:4;stroke-dasharray:none;stroke-opacity:1;stop-color:#000000"
       d="m 490.90462,317.34613 c -13.92717,0.93027 -25.3765,14.41885 -23.08963,28.38669 0.59992,12.99509 13.57637,23.82125 26.26631,23.24214 3.28707,-1.42537 1.22356,-6.68293 2.05313,-9.38128 0.17482,-14.28333 0.12165,-28.61418 0.069,-42.86952 -1.76626,0.20732 -3.53252,0.41464 -5.29879,0.62197 z"
       id="path2897"
       transform="scale(0.26458333)"
       inkscape:export-filename="/home/dom/perso/brangoulo/bretelles/logo.png"
       inkscape:export-xdpi="36.851913"
       inkscape:export-ydpi="36.851913" />
    <path
       style="color:#000000;overflow:visible;fill:#ff0000;fill-opacity:1;stroke:#000000;stroke-width:7.18555;stroke-miterlimit:4;stroke-dasharray:none;stroke-opacity:1;stop-color:#000000"
       d="m 457.19773,396.62557 c 0.0261,17.59678 -0.052,35.23979 0.039,52.80778 10.77166,-0.0678 21.58209,-5.64511 26.15047,-15.71627 8.15279,-15.67905 -4.88489,-36.07307 -22.18019,-36.60012 -1.32575,-0.13625 -2.70721,-0.42894 -4.00926,-0.49139 z"
       id="path2936"
       transform="scale(0.26458333)"
       inkscape:export-filename="/home/dom/perso/brangoulo/bretelles/logo.png"
       inkscape:export-xdpi="36.851913"
       inkscape:export-ydpi="36.851913" />
    <path
       style="color:#000000;overflow:visible;fill:#ff0000;fill-opacity:1;stroke:#000000;stroke-width:7.18555;stroke-miterlimit:4;stroke-dasharray:none;stroke-opacity:1;stop-color:#000000"
       d="m 492.4419,477.41258 c -14.68685,0.0525 -27.61006,14.91139 -24.49621,29.58149 1.4022,13.35698 15.21156,23.36741 28.29671,22.00835 -0.40623,-16.4415 0.81169,-32.99344 -0.5904,-49.37304 -0.21367,-1.64651 -1.62798,-2.48883 -3.2101,-2.2168 z"
       id="path2975"
       transform="scale(0.26458333)"
       inkscape:export-filename="/home/dom/perso/brangoulo/bretelles/logo.png"
       inkscape:export-xdpi="36.851913"
       inkscape:export-ydpi="36.851913" />
    <path
       style="color:#000000;overflow:visible;fill:#ffff00;fill-opacity:1;stroke:#000000;stroke-width:7.18555;stroke-miterlimit:4;stroke-dasharray:none;stroke-opacity:1;stop-color:#000000"
       d="m 455.29655,219.11062 c -0.51123,5.77333 -1.06001,11.62977 6.68011,9.82336 17.74775,0.96956 34.2263,17.50308 31.78906,35.80486 0.77826,18.10451 -16.87752,32.96887 -34.39162,32.27479 -7.57385,-1.67867 -2.72874,8.41062 -4.07755,12.61082 0.0236,26.46055 -0.0471,52.96018 0.0353,79.39641 13.31289,-1.28384 27.47308,4.45658 34.04458,16.51565 5.44974,8.38785 5.56671,19.38646 2.98196,28.73384 -4.98288,14.31876 -19.70837,24.06147 -34.86212,22.85625 -5.11969,0.54287 -0.75911,10.26046 -2.19969,14.35409 0.0236,29.32039 -0.0471,58.67979 0.0353,87.97584 14.26563,-0.0237 28.5704,0.0471 42.81176,-0.0353 -0.0287,-7.45305 0.0372,-14.94535 -0.0501,-22.3741 -14.88481,1.7349 -30.2505,-6.45558 -36.28574,-20.29655 -3.42213,-8.31364 -2.66273,-18.12935 -0.4623,-26.67774 5.34478,-13.00958 18.92412,-21.78188 33.05444,-20.95256 7.27323,1.15415 2.28684,-9.24546 3.74373,-13.55825 -0.0224,-26.14351 0.0446,-52.32263 -0.0334,-78.44397 -10.51493,0.0536 -22.04511,-1.58112 -29.19507,-10.17834 -7.03179,-6.56049 -10.47767,-16.12897 -9.25585,-25.67846 -1.02844,-12.8223 8.71409,-24.17713 19.67865,-29.43302 5.93787,-2.1193 12.53014,-4.14216 18.80569,-2.46002 -0.0236,-30.09273 0.047,-60.22448 -0.0353,-90.2929 -14.26559,0.0237 -28.57045,-0.047 -42.81175,0.0353 z"
       id="path3051"
       transform="scale(0.26458333)"
       inkscape:export-filename="/home/dom/perso/brangoulo/bretelles/logo.png"
       inkscape:export-xdpi="36.851913"
       inkscape:export-ydpi="36.851913" />
    <path
       style="color:#000000;overflow:visible;fill:#008000;fill-opacity:1;stroke:#000000;stroke-width:7.18555;stroke-miterlimit:4;stroke-dasharray:none;stroke-opacity:1;stop-color:#000000"
       d="m 265.1993,514.99795 c -7.29009,3.54512 -14.61625,7.04942 -21.88396,10.61986 0.0338,8.09224 -0.067,16.25876 0.0501,24.30498 14.82638,-6.60566 29.2229,-14.15778 43.74749,-21.36967 -0.0339,-8.03769 0.0671,-16.1499 -0.0501,-24.1416 -7.28784,3.52881 -14.57569,7.05762 -21.86353,10.58643 z"
       id="path3379"
       transform="scale(0.26458333)"
       inkscape:export-filename="/home/dom/perso/brangoulo/bretelles/logo.png"
       inkscape:export-xdpi="36.851913"
       inkscape:export-ydpi="36.851913" />
    <path
       style="color:#000000;overflow:visible;fill:#008000;fill-opacity:1;stroke:#000000;stroke-width:7.18555;stroke-miterlimit:4;stroke-dasharray:none;stroke-opacity:1;stop-color:#000000"
       d="m 274.46754,430.48285 c -10.4359,4.98858 -20.84664,10.06238 -31.1522,15.29668 0.0339,8.0662 -0.0671,16.20681 0.0501,24.227 14.57963,-7.07028 29.20456,-14.08127 43.74749,-21.20629 -0.0338,-8.09596 0.067,-16.26618 -0.0501,-24.31612 -4.19843,1.99958 -8.39686,3.99915 -12.59529,5.99873 z"
       id="path3418"
       transform="scale(0.26458333)"
       inkscape:export-filename="/home/dom/perso/brangoulo/bretelles/logo.png"
       inkscape:export-xdpi="36.851913"
       inkscape:export-ydpi="36.851913" />
    <path
       style="color:#000000;overflow:visible;fill:#008000;fill-opacity:1;stroke:#000000;stroke-width:7.18555;stroke-miterlimit:4;stroke-dasharray:none;stroke-opacity:1;stop-color:#000000"
       d="m 286.53927,344.61056 c -14.49057,6.86548 -28.8476,14.04464 -43.22393,21.12646 0.0337,8.10836 -0.067,16.29092 0.0501,24.35325 14.57797,-7.08564 29.1918,-14.13073 43.74749,-21.24156 -0.30737,-8.00503 0.62342,-16.42879 -0.57369,-24.23815 z"
       id="path3457"
       transform="scale(0.26458333)"
       inkscape:export-filename="/home/dom/perso/brangoulo/bretelles/logo.png"
       inkscape:export-xdpi="36.851913"
       inkscape:export-ydpi="36.851913" />
    <path
       style="color:#000000;overflow:visible;fill:#008000;fill-opacity:1;stroke:#000000;stroke-width:7.18555;stroke-miterlimit:4;stroke-dasharray:none;stroke-opacity:1;stop-color:#000000"
       d="m 286.22364,264.91895 c -14.36451,6.75873 -28.63623,13.74783 -42.9083,20.67901 0.31408,7.90118 -0.67693,16.15031 0.7575,23.87425 14.49958,-6.40007 28.64722,-13.62913 42.92501,-20.49335 -0.12834,-8.06461 0.43792,-16.29431 -0.26735,-24.27342 z"
       id="path3496"
       transform="scale(0.26458333)"
       inkscape:export-filename="/home/dom/perso/brangoulo/bretelles/logo.png"
       inkscape:export-xdpi="36.851913"
       inkscape:export-ydpi="36.851913" />
    <path
       style="color:#000000;overflow:visible;fill:#008000;fill-opacity:1;stroke:#000000;stroke-width:1.79639;stroke-miterlimit:4;stroke-dasharray:none;stroke-opacity:1;stop-color:#000000"
       d="m 243.31534,218.99179 c 0.0681,3.7969 -0.14196,7.70191 0.13461,11.43956 7.7541,-3.7159 15.48536,-7.48657 23.1873,-11.31006 -2.29682,-0.26738 -4.90315,-0.0821 -7.3109,-0.15754 -5.33214,0.009 -10.70331,-0.0511 -16.01101,0.028 z"
       id="path3535"
       transform="scale(0.26458333)"
       inkscape:export-filename="/home/dom/perso/brangoulo/bretelles/logo.png"
       inkscape:export-xdpi="36.851913"
       inkscape:export-ydpi="36.851913" />
    <path
       style="color:#000000;overflow:visible;fill:#00ffff;fill-opacity:1;stroke:#000000;stroke-width:7.18555;stroke-miterlimit:4;stroke-dasharray:none;stroke-opacity:1;stop-color:#000000"
       d="m 286.49285,224.83457 c -14.48233,6.72288 -28.81809,13.79542 -43.17751,20.75699 0.3168,7.91461 -0.68214,16.19256 0.75936,23.92252 14.52187,-6.55175 28.72377,-13.84522 43.03826,-20.82197 -0.31571,-7.87759 0.64602,-16.18057 -0.62011,-23.85754 z"
       id="path3765"
       transform="scale(0.26458333)"
       inkscape:export-filename="/home/dom/perso/brangoulo/bretelles/logo.png"
       inkscape:export-xdpi="36.851913"
       inkscape:export-ydpi="36.851913" />
    <path
       style="color:#000000;overflow:visible;fill:#00ffff;fill-opacity:1;stroke:#000000;stroke-width:7.18555;stroke-miterlimit:4;stroke-dasharray:none;stroke-opacity:1;stop-color:#000000"
       d="m 286.22921,304.84366 c -14.36415,6.80447 -28.64141,13.82529 -42.91387,20.79969 0.0335,8.17224 -0.0668,16.41831 0.0501,24.54449 14.56355,-7.10027 29.1631,-14.15968 43.70479,-21.28427 -0.15133,-8.06456 0.38869,-16.29569 -0.33605,-24.27342 z"
       id="path3804"
       transform="scale(0.26458333)"
       inkscape:export-filename="/home/dom/perso/brangoulo/bretelles/logo.png"
       inkscape:export-xdpi="36.851913"
       inkscape:export-ydpi="36.851913" />
    <path
       style="color:#000000;overflow:visible;fill:#00ffff;fill-opacity:1;stroke:#000000;stroke-width:7.18555;stroke-miterlimit:4;stroke-dasharray:none;stroke-opacity:1;stop-color:#000000"
       d="m 286.36289,384.71722 c -14.3456,7.02831 -28.72391,14.02453 -43.04755,21.07818 0.0338,8.07179 -0.067,16.21795 0.0501,24.24372 14.57796,-7.0609 29.19184,-14.08113 43.74749,-21.1673 -0.3211,-7.95402 0.6917,-16.41182 -0.75007,-24.1546 z"
       id="path3843"
       transform="scale(0.26458333)"
       inkscape:export-filename="/home/dom/perso/brangoulo/bretelles/logo.png"
       inkscape:export-xdpi="36.851913"
       inkscape:export-ydpi="36.851913" />
    <path
       style="color:#000000;overflow:visible;fill:#00ffff;fill-opacity:1;stroke:#000000;stroke-width:7.18555;stroke-miterlimit:4;stroke-dasharray:none;stroke-opacity:1;stop-color:#000000"
       d="m 268.28871,473.50069 c -8.31842,4.05045 -16.68612,8.03367 -24.97337,12.12743 0.0338,8.09286 -0.067,16.26 0.0501,24.30684 14.58877,-7.06658 29.26215,-13.99466 43.74749,-21.25271 -0.0338,-8.07736 0.067,-16.22907 -0.0501,-24.26042 -6.25804,3.02628 -12.51608,6.05257 -18.77412,9.07886 z"
       id="path3882"
       transform="scale(0.26458333)"
       inkscape:export-filename="/home/dom/perso/brangoulo/bretelles/logo.png"
       inkscape:export-xdpi="36.851913"
       inkscape:export-ydpi="36.851913" />
    <path
       style="color:#000000;overflow:visible;fill:#00ffff;fill-opacity:1;stroke:#000000;stroke-width:3.59278;stroke-miterlimit:4;stroke-dasharray:none;stroke-opacity:1;stop-color:#000000"
       d="m 271.02073,551.86017 c -5.36025,2.7115 -11.08927,5.27495 -16.21849,8.12178 10.75956,0.31713 21.57028,0.17033 32.31072,0.15224 -0.0341,-5.36476 0.0681,-10.80552 -0.0511,-16.12287 -5.34706,2.61629 -10.69412,5.23257 -16.04117,7.84885 z"
       id="path3921"
       transform="scale(0.26458333)"
       inkscape:export-filename="/home/dom/perso/brangoulo/bretelles/logo.png"
       inkscape:export-xdpi="36.851913"
       inkscape:export-ydpi="36.851913" />
  </g>
</svg>
